<?xml version="1.0" standalone="no"?>
<!DOCTYPE svg PUBLIC "-//W3C//DTD SVG 20010904//EN"
 "http://www.w3.org/TR/2001/REC-SVG-20010904/DTD/svg10.dtd">
<svg version="1.0" xmlns="http://www.w3.org/2000/svg"
 width="534.000000pt" height="400.000000pt" viewBox="0 0 534.000000 400.000000"
 preserveAspectRatio="xMidYMid meet">

<g transform="translate(0.000000,400.000000) scale(0.100000,-0.100000)"
fill="#000000" stroke="none">
<path d="M0 2000 l0 -2000 2670 0 2670 0 0 2000 0 2000 -2670 0 -2670 0 0
-2000z m2800 950 c67 -129 154 -296 193 -370 68 -132 93 -179 250 -481 l77
-145 91 -18 c97 -18 260 -69 349 -108 l54 -24 -204 -12 c-340 -20 -603 -69
-878 -163 -325 -112 -680 -298 -1057 -553 -77 -52 -142 -93 -143 -91 -2 2 175
347 394 767 218 420 451 867 516 993 183 350 232 444 234 442 0 -1 56 -108
124 -237z m846 -1625 c100 -193 181 -351 180 -352 -3 -3 -865 273 -871 279 -8
7 79 123 144 191 100 106 305 243 349 235 9 -2 94 -154 198 -353z"/>
<path d="M2506 2199 c-92 -176 -166 -323 -163 -325 2 -2 30 5 63 16 89 31 284
68 424 81 69 6 125 12 126 13 1 2 -273 526 -278 532 -3 2 -81 -140 -172 -317z"/>
</g>
</svg>
